<svg width="104" height="36" viewBox="0 0 104 36" fill="none" xmlns="http://www.w3.org/2000/svg">
<path fill-rule="evenodd" clip-rule="evenodd" d="M6.82602 7.98409C11.9054 2.90472 20.1407 2.90472 25.2201 7.98409L31.3444 14.1084C32.28 15.044 32.2801 16.5611 31.3444 17.4967L17.7173 31.1238C16.7816 32.0595 15.2646 32.0595 14.3289 31.1238L0.701741 17.4967C-0.233923 16.5611 -0.233904 15.0441 0.701741 14.1084L6.82602 7.98409ZM16.9149 7.38867C16.3178 7.33385 15.7168 7.3367 15.1202 7.39713L14.8005 7.42956C13.4619 7.56516 12.1692 7.99284 11.0138 8.68247C10.5194 8.97762 10.0537 9.3186 9.62298 9.70084L9.19067 10.0846C8.90516 10.338 9.03836 10.809 9.41429 10.8753L14.6669 11.8019C17.3189 12.2697 19.9345 12.9248 22.4939 13.7621L27.7916 15.4951C28.0221 15.5705 28.1955 15.2818 28.0207 15.1137L22.758 10.0555L21.7436 9.27756C20.3447 8.20473 18.6705 7.54984 16.9149 7.38867Z" fill="#F7F7F7"/>
<path d="M41.4265 12.8H43.5705V22.176H48.4025V24H41.4265V12.8ZM50.5628 12.8H52.7068V24H50.5628V12.8ZM55.9334 12.8H57.9654L64.3014 21.408L63.7414 21.6V12.8H65.8214V24H63.7734L57.4694 15.408L58.0294 15.216V24H55.9334V12.8ZM69.054 12.8H77.262V14.592H71.198V17.488H76.638V19.264H71.198V22.208H77.454V24H69.054V12.8ZM82.0482 19.392C82.0482 20.3093 82.2988 21.0293 82.8002 21.552C83.3015 22.0747 83.9735 22.336 84.8162 22.336C85.6482 22.336 86.3095 22.08 86.8002 21.568C87.2908 21.0453 87.5362 20.32 87.5362 19.392V12.8H89.6802V19.392C89.6802 20.3733 89.4828 21.2213 89.0882 21.936C88.7042 22.64 88.1442 23.184 87.4082 23.568C86.6828 23.952 85.8188 24.144 84.8162 24.144C83.8028 24.144 82.9282 23.952 82.1922 23.568C81.4562 23.184 80.8908 22.64 80.4962 21.936C80.1015 21.2213 79.9042 20.3733 79.9042 19.392V12.8H82.0482V19.392ZM97.2619 12.8C98.6806 12.8 99.7792 13.136 100.558 13.808C101.337 14.48 101.726 15.424 101.726 16.64C101.726 17.9093 101.337 18.896 100.558 19.6C99.7792 20.304 98.6806 20.656 97.2619 20.656H93.8859L94.8299 19.712V24H92.6859V12.8H97.2619ZM97.1659 18.88C97.9659 18.88 98.5792 18.6987 99.0059 18.336C99.4432 17.9733 99.6619 17.424 99.6619 16.688C99.6619 15.984 99.4432 15.4613 99.0059 15.12C98.5792 14.768 97.9659 14.592 97.1659 14.592H93.8859L94.8299 13.648V19.824L93.8859 18.88H97.1659Z" fill="#F7F7F7"/>
</svg>
