<svg width="104" height="36" viewBox="0 0 104 36" fill="none" xmlns="http://www.w3.org/2000/svg">
<path fill-rule="evenodd" clip-rule="evenodd" d="M6.82602 7.98409C11.9054 2.90472 20.1407 2.90472 25.2201 7.98409L31.3444 14.1084C32.28 15.044 32.2801 16.5611 31.3444 17.4967L17.7173 31.1238C16.7816 32.0595 15.2646 32.0595 14.3289 31.1238L0.701741 17.4967C-0.233923 16.5611 -0.233904 15.0441 0.701741 14.1084L6.82602 7.98409ZM16.9149 7.38867C16.3178 7.33385 15.7168 7.3367 15.1202 7.39713L14.8005 7.42956C13.4619 7.56516 12.1692 7.99284 11.0138 8.68247C10.5194 8.97762 10.0537 9.3186 9.62298 9.70084L9.19067 10.0846C8.90516 10.338 9.03836 10.809 9.41429 10.8753L14.6669 11.8019C17.3189 12.2697 19.9345 12.9248 22.4939 13.7621L27.7916 15.4951C28.0221 15.5705 28.1955 15.2818 28.0207 15.1137L22.758 10.0555L21.7436 9.27756C20.3447 8.20473 18.6705 7.54984 16.9149 7.38867Z" fill="#F7F7F7"/>
<path d="M97.2618 12.8C98.6805 12.8 99.7791 13.136 100.558 13.808C101.336 14.48 101.726 15.424 101.726 16.64C101.726 17.9094 101.336 18.896 100.558 19.6C99.7791 20.304 98.6805 20.656 97.2618 20.656H93.8858L94.8298 19.712V24H92.6858V12.8H97.2618ZM97.1658 18.88C97.9658 18.88 98.5791 18.6987 99.0058 18.3361C99.4431 17.9734 99.6618 17.424 99.6618 16.688C99.6618 15.984 99.4431 15.4614 99.0058 15.12C98.5791 14.768 97.9658 14.592 97.1658 14.592H93.8858L94.8298 13.648V19.824L93.8858 18.88H97.1658Z" fill="#F7F7F7"/>
<path d="M82.0481 19.392C82.0481 20.3094 82.2987 21.0294 82.8001 21.552C83.3014 22.0747 83.9734 22.3361 84.8161 22.3361C85.6481 22.3361 86.3094 22.0801 86.8001 21.5681C87.2907 21.0454 87.5361 20.32 87.5361 19.392V12.8H89.6801V19.392C89.6801 20.3734 89.4827 21.2214 89.0881 21.9361C88.7041 22.6401 88.1441 23.1841 87.4081 23.5681C86.6827 23.9521 85.8187 24.144 84.8161 24.144C83.8027 24.144 82.9281 23.9521 82.1921 23.5681C81.4561 23.1841 80.8907 22.6401 80.4961 21.9361C80.1014 21.2214 79.9041 20.3734 79.9041 19.392V12.8H82.0481V19.392Z" fill="#F7F7F7"/>
<path d="M69.054 12.8H77.262V14.592H71.198V17.488H76.638V19.264H71.198V22.208H77.454V24H69.054V12.8Z" fill="#F7F7F7"/>
<path d="M55.9333 12.8H57.9653L64.3013 21.4081L63.7414 21.6V12.8H65.8214V24H63.7733L57.4693 15.408L58.0293 15.216V24H55.9333V12.8Z" fill="#F7F7F7"/>
<path d="M50.5627 12.8H52.7067V24H50.5627V12.8Z" fill="#F7F7F7"/>
<path d="M41.4265 12.8H43.5705V22.1761H48.4025V24H41.4265V12.8Z" fill="#F7F7F7"/>
</svg>
